<mxfile host="app.diagrams.net" agent="Mozilla/5.0 (X11; Linux x86_64; rv:135.0) Gecko/20100101 Firefox/135.0" version="26.2.10">
  <diagram name="Page-1" id="FRa_R0hlQTdd5-_sHwNs">
    <mxGraphModel dx="985" dy="521" grid="1" gridSize="10" guides="1" tooltips="1" connect="1" arrows="1" fold="1" page="1" pageScale="1" pageWidth="850" pageHeight="1100" math="0" shadow="0">
      <root>
        <mxCell id="0" />
        <mxCell id="1" parent="0" />
        <mxCell id="VxTgVIhhQwmp0bRHXT9H-14" style="rounded=0;orthogonalLoop=1;jettySize=auto;html=1;exitX=1;exitY=0.5;exitDx=0;exitDy=0;entryX=0;entryY=0.5;entryDx=0;entryDy=0;targetPerimeterSpacing=0;sourcePerimeterSpacing=0;endArrow=none;startFill=0;strokeColor=#141414;" parent="1" source="VxTgVIhhQwmp0bRHXT9H-1" target="VxTgVIhhQwmp0bRHXT9H-5" edge="1">
          <mxGeometry relative="1" as="geometry" />
        </mxCell>
        <mxCell id="VxTgVIhhQwmp0bRHXT9H-15" style="rounded=0;orthogonalLoop=1;jettySize=auto;html=1;exitX=1;exitY=0.5;exitDx=0;exitDy=0;entryX=0;entryY=0.5;entryDx=0;entryDy=0;endArrow=none;startFill=0;strokeColor=#141414;" parent="1" source="VxTgVIhhQwmp0bRHXT9H-1" target="VxTgVIhhQwmp0bRHXT9H-6" edge="1">
          <mxGeometry relative="1" as="geometry" />
        </mxCell>
        <mxCell id="VxTgVIhhQwmp0bRHXT9H-16" style="rounded=0;orthogonalLoop=1;jettySize=auto;html=1;exitX=1;exitY=0.5;exitDx=0;exitDy=0;entryX=0;entryY=0.5;entryDx=0;entryDy=0;endArrow=none;startFill=0;strokeColor=#141414;" parent="1" source="VxTgVIhhQwmp0bRHXT9H-1" target="VxTgVIhhQwmp0bRHXT9H-7" edge="1">
          <mxGeometry relative="1" as="geometry" />
        </mxCell>
        <mxCell id="VxTgVIhhQwmp0bRHXT9H-17" style="rounded=0;orthogonalLoop=1;jettySize=auto;html=1;exitX=1;exitY=0.5;exitDx=0;exitDy=0;entryX=0;entryY=0.5;entryDx=0;entryDy=0;endArrow=none;startFill=0;strokeColor=#141414;" parent="1" source="VxTgVIhhQwmp0bRHXT9H-1" target="VxTgVIhhQwmp0bRHXT9H-9" edge="1">
          <mxGeometry relative="1" as="geometry" />
        </mxCell>
        <mxCell id="VxTgVIhhQwmp0bRHXT9H-1" value="X" style="ellipse;whiteSpace=wrap;html=1;aspect=fixed;fillColor=default;strokeColor=#b85450;fontColor=#990000;" parent="1" vertex="1">
          <mxGeometry x="195" y="160" width="50" height="50" as="geometry" />
        </mxCell>
        <mxCell id="VxTgVIhhQwmp0bRHXT9H-18" style="rounded=0;orthogonalLoop=1;jettySize=auto;html=1;exitX=1;exitY=0.5;exitDx=0;exitDy=0;entryX=0;entryY=0.5;entryDx=0;entryDy=0;endArrow=none;startFill=0;strokeColor=#141414;" parent="1" source="VxTgVIhhQwmp0bRHXT9H-2" target="VxTgVIhhQwmp0bRHXT9H-5" edge="1">
          <mxGeometry relative="1" as="geometry" />
        </mxCell>
        <mxCell id="VxTgVIhhQwmp0bRHXT9H-19" style="rounded=0;orthogonalLoop=1;jettySize=auto;html=1;exitX=1;exitY=0.5;exitDx=0;exitDy=0;entryX=0;entryY=0.5;entryDx=0;entryDy=0;endArrow=none;startFill=0;strokeColor=#141414;" parent="1" source="VxTgVIhhQwmp0bRHXT9H-2" target="VxTgVIhhQwmp0bRHXT9H-6" edge="1">
          <mxGeometry relative="1" as="geometry" />
        </mxCell>
        <mxCell id="VxTgVIhhQwmp0bRHXT9H-20" style="rounded=0;orthogonalLoop=1;jettySize=auto;html=1;exitX=1;exitY=0.5;exitDx=0;exitDy=0;entryX=0;entryY=0.5;entryDx=0;entryDy=0;endArrow=none;startFill=0;strokeColor=#141414;" parent="1" source="VxTgVIhhQwmp0bRHXT9H-2" target="VxTgVIhhQwmp0bRHXT9H-7" edge="1">
          <mxGeometry relative="1" as="geometry" />
        </mxCell>
        <mxCell id="VxTgVIhhQwmp0bRHXT9H-21" style="rounded=0;orthogonalLoop=1;jettySize=auto;html=1;exitX=1;exitY=0.5;exitDx=0;exitDy=0;entryX=0;entryY=0.5;entryDx=0;entryDy=0;endArrow=none;startFill=0;strokeColor=#141414;" parent="1" source="VxTgVIhhQwmp0bRHXT9H-2" target="VxTgVIhhQwmp0bRHXT9H-9" edge="1">
          <mxGeometry relative="1" as="geometry" />
        </mxCell>
        <mxCell id="VxTgVIhhQwmp0bRHXT9H-2" value="Y" style="ellipse;whiteSpace=wrap;html=1;aspect=fixed;fillColor=default;strokeColor=#b85450;align=center;verticalAlign=middle;fontFamily=Helvetica;fontSize=12;fontColor=#990000;" parent="1" vertex="1">
          <mxGeometry x="195" y="220" width="50" height="50" as="geometry" />
        </mxCell>
        <mxCell id="VxTgVIhhQwmp0bRHXT9H-22" style="rounded=0;orthogonalLoop=1;jettySize=auto;html=1;exitX=1;exitY=0.5;exitDx=0;exitDy=0;entryX=0;entryY=0.5;entryDx=0;entryDy=0;endArrow=none;startFill=0;strokeColor=#141414;" parent="1" source="VxTgVIhhQwmp0bRHXT9H-3" target="VxTgVIhhQwmp0bRHXT9H-5" edge="1">
          <mxGeometry relative="1" as="geometry" />
        </mxCell>
        <mxCell id="VxTgVIhhQwmp0bRHXT9H-23" style="rounded=0;orthogonalLoop=1;jettySize=auto;html=1;exitX=1;exitY=0.5;exitDx=0;exitDy=0;entryX=0;entryY=0.5;entryDx=0;entryDy=0;endArrow=none;startFill=0;strokeColor=#141414;" parent="1" source="VxTgVIhhQwmp0bRHXT9H-3" target="VxTgVIhhQwmp0bRHXT9H-6" edge="1">
          <mxGeometry relative="1" as="geometry" />
        </mxCell>
        <mxCell id="VxTgVIhhQwmp0bRHXT9H-24" style="rounded=0;orthogonalLoop=1;jettySize=auto;html=1;exitX=1;exitY=0.5;exitDx=0;exitDy=0;entryX=0;entryY=0.5;entryDx=0;entryDy=0;endArrow=none;startFill=0;strokeColor=#141414;" parent="1" source="VxTgVIhhQwmp0bRHXT9H-3" target="VxTgVIhhQwmp0bRHXT9H-7" edge="1">
          <mxGeometry relative="1" as="geometry" />
        </mxCell>
        <mxCell id="VxTgVIhhQwmp0bRHXT9H-25" style="rounded=0;orthogonalLoop=1;jettySize=auto;html=1;exitX=1;exitY=0.5;exitDx=0;exitDy=0;entryX=0;entryY=0.5;entryDx=0;entryDy=0;endArrow=none;startFill=0;strokeColor=#141414;" parent="1" source="VxTgVIhhQwmp0bRHXT9H-3" target="VxTgVIhhQwmp0bRHXT9H-9" edge="1">
          <mxGeometry relative="1" as="geometry" />
        </mxCell>
        <mxCell id="VxTgVIhhQwmp0bRHXT9H-3" value="Z" style="ellipse;whiteSpace=wrap;html=1;aspect=fixed;fillColor=default;strokeColor=#b85450;align=center;verticalAlign=middle;fontFamily=Helvetica;fontSize=12;fontColor=#990000;" parent="1" vertex="1">
          <mxGeometry x="195" y="280" width="50" height="50" as="geometry" />
        </mxCell>
        <mxCell id="VxTgVIhhQwmp0bRHXT9H-4" value="Entradas" style="text;html=1;align=center;verticalAlign=middle;whiteSpace=wrap;rounded=0;fontColor=light-dark(#a51d2d, #ededed);fontSize=16;" parent="1" vertex="1">
          <mxGeometry x="180" y="130" width="80" height="30" as="geometry" />
        </mxCell>
        <mxCell id="VxTgVIhhQwmp0bRHXT9H-26" style="rounded=0;orthogonalLoop=1;jettySize=auto;html=1;exitX=1;exitY=0.5;exitDx=0;exitDy=0;entryX=0;entryY=0.5;entryDx=0;entryDy=0;endArrow=none;startFill=0;strokeColor=#141414;" parent="1" source="VxTgVIhhQwmp0bRHXT9H-5" target="VxTgVIhhQwmp0bRHXT9H-10" edge="1">
          <mxGeometry relative="1" as="geometry" />
        </mxCell>
        <mxCell id="VxTgVIhhQwmp0bRHXT9H-27" style="rounded=0;orthogonalLoop=1;jettySize=auto;html=1;exitX=1;exitY=0.5;exitDx=0;exitDy=0;entryX=0;entryY=0.5;entryDx=0;entryDy=0;endArrow=none;startFill=0;strokeColor=#141414;" parent="1" source="VxTgVIhhQwmp0bRHXT9H-5" target="VxTgVIhhQwmp0bRHXT9H-11" edge="1">
          <mxGeometry relative="1" as="geometry" />
        </mxCell>
        <mxCell id="VxTgVIhhQwmp0bRHXT9H-5" value="" style="ellipse;whiteSpace=wrap;html=1;aspect=fixed;fillColor=default;strokeColor=#6c8ebf;" parent="1" vertex="1">
          <mxGeometry x="300" y="130" width="50" height="50" as="geometry" />
        </mxCell>
        <mxCell id="VxTgVIhhQwmp0bRHXT9H-28" style="rounded=0;orthogonalLoop=1;jettySize=auto;html=1;exitX=1;exitY=0.5;exitDx=0;exitDy=0;entryX=0;entryY=0.5;entryDx=0;entryDy=0;endArrow=none;startFill=0;strokeColor=#141414;" parent="1" source="VxTgVIhhQwmp0bRHXT9H-6" target="VxTgVIhhQwmp0bRHXT9H-10" edge="1">
          <mxGeometry relative="1" as="geometry" />
        </mxCell>
        <mxCell id="VxTgVIhhQwmp0bRHXT9H-29" style="rounded=0;orthogonalLoop=1;jettySize=auto;html=1;exitX=1;exitY=0.5;exitDx=0;exitDy=0;entryX=0;entryY=0.5;entryDx=0;entryDy=0;endArrow=none;startFill=0;strokeColor=#141414;" parent="1" source="VxTgVIhhQwmp0bRHXT9H-6" target="VxTgVIhhQwmp0bRHXT9H-11" edge="1">
          <mxGeometry relative="1" as="geometry" />
        </mxCell>
        <mxCell id="VxTgVIhhQwmp0bRHXT9H-6" value="" style="ellipse;whiteSpace=wrap;html=1;aspect=fixed;fillColor=default;strokeColor=#6c8ebf;align=center;verticalAlign=middle;fontFamily=Helvetica;fontSize=12;fontColor=default;" parent="1" vertex="1">
          <mxGeometry x="300" y="190" width="50" height="50" as="geometry" />
        </mxCell>
        <mxCell id="VxTgVIhhQwmp0bRHXT9H-30" style="rounded=0;orthogonalLoop=1;jettySize=auto;html=1;exitX=1;exitY=0.5;exitDx=0;exitDy=0;entryX=0;entryY=0.5;entryDx=0;entryDy=0;endArrow=none;startFill=0;strokeColor=#141414;" parent="1" source="VxTgVIhhQwmp0bRHXT9H-7" target="VxTgVIhhQwmp0bRHXT9H-10" edge="1">
          <mxGeometry relative="1" as="geometry" />
        </mxCell>
        <mxCell id="VxTgVIhhQwmp0bRHXT9H-31" style="rounded=0;orthogonalLoop=1;jettySize=auto;html=1;exitX=1;exitY=0.5;exitDx=0;exitDy=0;entryX=0;entryY=0.5;entryDx=0;entryDy=0;endArrow=none;startFill=0;strokeColor=#141414;" parent="1" source="VxTgVIhhQwmp0bRHXT9H-7" target="VxTgVIhhQwmp0bRHXT9H-11" edge="1">
          <mxGeometry relative="1" as="geometry" />
        </mxCell>
        <mxCell id="VxTgVIhhQwmp0bRHXT9H-7" value="" style="ellipse;whiteSpace=wrap;html=1;aspect=fixed;fillColor=default;strokeColor=#6c8ebf;align=center;verticalAlign=middle;fontFamily=Helvetica;fontSize=12;fontColor=default;" parent="1" vertex="1">
          <mxGeometry x="300" y="250" width="50" height="50" as="geometry" />
        </mxCell>
        <mxCell id="VxTgVIhhQwmp0bRHXT9H-32" style="rounded=0;orthogonalLoop=1;jettySize=auto;html=1;exitX=1;exitY=0.5;exitDx=0;exitDy=0;entryX=0;entryY=0.5;entryDx=0;entryDy=0;endArrow=none;startFill=0;strokeColor=#141414;" parent="1" source="VxTgVIhhQwmp0bRHXT9H-9" target="VxTgVIhhQwmp0bRHXT9H-10" edge="1">
          <mxGeometry relative="1" as="geometry" />
        </mxCell>
        <mxCell id="VxTgVIhhQwmp0bRHXT9H-33" style="rounded=0;orthogonalLoop=1;jettySize=auto;html=1;exitX=1;exitY=0.5;exitDx=0;exitDy=0;entryX=0;entryY=0.5;entryDx=0;entryDy=0;endArrow=none;startFill=0;strokeColor=#141414;" parent="1" source="VxTgVIhhQwmp0bRHXT9H-9" target="VxTgVIhhQwmp0bRHXT9H-11" edge="1">
          <mxGeometry relative="1" as="geometry" />
        </mxCell>
        <mxCell id="VxTgVIhhQwmp0bRHXT9H-9" value="" style="ellipse;whiteSpace=wrap;html=1;aspect=fixed;fillColor=default;strokeColor=#6c8ebf;align=center;verticalAlign=middle;fontFamily=Helvetica;fontSize=12;fontColor=default;" parent="1" vertex="1">
          <mxGeometry x="300" y="310" width="50" height="50" as="geometry" />
        </mxCell>
        <mxCell id="VxTgVIhhQwmp0bRHXT9H-10" value="1" style="ellipse;whiteSpace=wrap;html=1;aspect=fixed;fillColor=default;strokeColor=#82b366;fontColor=#287832;" parent="1" vertex="1">
          <mxGeometry x="390" y="190" width="50" height="50" as="geometry" />
        </mxCell>
        <mxCell id="VxTgVIhhQwmp0bRHXT9H-11" value="0" style="ellipse;whiteSpace=wrap;html=1;aspect=fixed;fillColor=default;strokeColor=#82b366;align=center;verticalAlign=middle;fontFamily=Helvetica;fontSize=12;fontColor=#287832;" parent="1" vertex="1">
          <mxGeometry x="390" y="250" width="50" height="50" as="geometry" />
        </mxCell>
        <mxCell id="VxTgVIhhQwmp0bRHXT9H-13" value="Salidas" style="text;html=1;align=center;verticalAlign=middle;whiteSpace=wrap;rounded=0;fontColor=light-dark(#287832, #ededed);fontSize=16;" parent="1" vertex="1">
          <mxGeometry x="377.5" y="160" width="75" height="30" as="geometry" />
        </mxCell>
        <mxCell id="VxTgVIhhQwmp0bRHXT9H-34" value="Capas Intermedias" style="text;html=1;align=center;verticalAlign=middle;whiteSpace=wrap;rounded=0;fontColor=light-dark(#394975,#EDEDED);fontSize=16;" parent="1" vertex="1">
          <mxGeometry x="267.5" y="80" width="115" height="50" as="geometry" />
        </mxCell>
      </root>
    </mxGraphModel>
  </diagram>
</mxfile>
